<?xml version="1.0" standalone="no"?>
<!DOCTYPE svg PUBLIC "-//W3C//DTD SVG 20010904//EN"
 "http://www.w3.org/TR/2001/REC-SVG-20010904/DTD/svg10.dtd">
<svg version="1.0" xmlns="http://www.w3.org/2000/svg"
 width="2133.000000pt" height="2133.000000pt" viewBox="0 0 2133.000000 2133.000000"
 preserveAspectRatio="xMidYMid meet">
<metadata>
Created by potrace 1.11, written by Peter Selinger 2001-2013
</metadata>
<g transform="translate(0.000000,2133.000000) scale(0.100000,-0.100000)"
fill="#000000" stroke="none">
<path d="M6844 17370 c-143 -38 -279 -125 -343 -221 -46 -70 -75 -152 -90
-264 -8 -53 -11 -986 -11 -3029 l0 -2953 83 41 c145 73 280 106 432 106 179 0
309 -52 451 -180 49 -44 103 -86 121 -95 31 -15 109 -20 151 -9 l22 6 0 2750
0 2750 1253 -5 c759 -3 1303 -9 1382 -16 741 -61 1206 -155 1681 -342 565
-222 1091 -569 1494 -985 713 -738 1148 -1737 1309 -3009 41 -324 53 -507 58
-913 l6 -402 84 -26 c74 -23 96 -26 181 -22 131 7 227 44 434 165 278 163 409
216 570 229 l78 7 0 146 c0 515 -75 1193 -191 1720 -401 1825 -1388 3155
-2894 3901 -686 340 -1389 531 -2275 619 -437 44 -450 44 -2210 47 -1649 3
-1707 3 -1776 -16z"/>
<path d="M18421 15764 c0 -11 3 -14 6 -6 3 7 2 16 -1 19 -3 4 -6 -2 -5 -13z"/>
<path d="M11990 15666 c-130 -46 -219 -106 -335 -227 -320 -333 -514 -957
-515 -1647 l0 -174 -78 154 c-166 328 -347 575 -597 817 -334 323 -715 529
-1100 596 -141 25 -358 23 -492 -3 -157 -32 -182 -50 -217 -162 -140 -441 92
-908 646 -1303 113 -81 334 -218 888 -553 562 -339 735 -434 902 -494 90 -33
96 -37 92 -60 -16 -104 -44 -603 -44 -820 l-1 -145 -72 140 c-174 335 -369
597 -643 866 -408 397 -844 633 -1334 721 -114 20 -423 17 -535 -5 -166 -33
-252 -64 -294 -106 -53 -53 -76 -157 -75 -341 1 -184 33 -303 132 -485 111
-205 379 -465 657 -637 150 -92 301 -171 1030 -536 775 -389 914 -450 1134
-505 l55 -13 32 -224 c32 -223 70 -447 81 -476 10 -26 51 -35 96 -22 59 18
147 104 147 144 0 16 -16 123 -35 237 -19 114 -38 238 -41 275 l-6 67 58 22
c127 49 262 133 1064 661 399 263 557 394 700 583 74 98 152 255 176 354 34
138 19 335 -34 445 -39 80 -148 107 -393 97 -166 -6 -272 -29 -443 -98 -336
-133 -678 -430 -921 -799 -77 -117 -187 -325 -236 -449 l-34 -84 -7 149 c-10
215 6 769 28 945 5 46 6 46 62 64 31 10 95 34 142 55 116 50 1043 556 1190
649 295 186 486 409 549 641 37 131 22 331 -28 400 -24 33 -93 58 -210 75
-123 19 -189 19 -318 -1 -254 -37 -510 -157 -755 -352 -43 -34 -78 -60 -78
-58 0 2 49 104 110 227 177 362 235 572 234 849 0 185 -19 273 -89 417 -77
158 -113 176 -245 129z"/>
<path d="M6765 10824 c-108 -22 -139 -30 -195 -56 -36 -16 -89 -43 -117 -61
l-53 -31 0 -1106 0 -1106 -62 -13 c-96 -19 -257 -75 -347 -120 -375 -189 -684
-524 -917 -996 -96 -194 -117 -268 -91 -309 14 -21 25 -26 58 -26 86 0 124 40
214 225 142 291 332 531 545 691 154 116 375 207 532 221 l68 6 3 -1799 c3
-1978 -1 -1844 62 -1978 47 -99 141 -183 272 -243 121 -55 35 -53 1708 -53
906 0 1629 4 1740 10 1432 76 2539 398 3465 1007 755 497 1323 1141 1758 1993
73 143 87 165 106 162 11 -2 110 -25 218 -52 303 -75 410 -84 549 -44 30 8
155 64 279 124 246 120 300 138 435 147 189 12 347 -41 596 -200 40 -26 85
-10 139 49 53 58 80 116 80 176 0 61 -26 90 -139 158 -163 97 -316 140 -500
140 -192 0 -330 -37 -581 -156 -85 -40 -184 -80 -220 -89 -125 -29 -249 -18
-501 45 -63 16 -141 32 -172 36 -31 4 -57 10 -57 13 0 4 27 81 60 171 285 774
448 1697 486 2736 l7 191 -46 11 c-65 17 -174 15 -238 -4 -63 -19 -133 -53
-277 -136 -307 -177 -513 -246 -709 -236 l-90 4 -7 -135 c-37 -736 -155 -1427
-342 -2013 -52 -161 -202 -548 -214 -548 -17 0 -138 87 -193 138 -33 31 -98
111 -146 177 -104 144 -152 195 -223 232 -49 26 -62 28 -163 28 -126 0 -147
-7 -369 -105 -76 -34 -179 -75 -230 -93 -86 -30 -99 -32 -231 -32 l-140 1
-185 61 c-247 81 -327 98 -475 97 -134 0 -183 -9 -455 -84 -226 -63 -320 -80
-440 -80 -262 0 -480 100 -730 336 -198 187 -237 209 -365 209 -77 0 -98 -4
-149 -28 -87 -41 -166 -101 -316 -242 -171 -160 -275 -239 -409 -308 -202
-105 -376 -150 -576 -149 -206 0 -375 48 -640 181 l-170 86 -3 1253 c-1 688
-4 1252 -5 1252 -2 0 -30 -10 -63 -21 -42 -16 -84 -22 -144 -23 -108 -1 -133
12 -266 134 -113 104 -202 154 -304 170 -67 10 -80 11 -115 4z m3163 -2685
c42 -21 103 -69 194 -156 145 -136 204 -181 318 -238 146 -74 313 -115 465
-115 85 0 232 22 340 50 331 87 392 101 488 106 164 10 312 -15 564 -97 68
-21 156 -46 195 -55 90 -19 246 -21 319 -4 60 14 181 70 334 155 175 97 283
117 382 71 73 -34 127 -88 247 -245 120 -157 198 -235 279 -281 l57 -32 -18
-32 c-11 -17 -36 -60 -57 -96 -363 -617 -906 -1125 -1542 -1444 -501 -251
-1133 -421 -1828 -491 -368 -37 -411 -38 -1707 -42 l-1298 -4 0 1220 0 1220
88 -38 c217 -95 363 -130 568 -138 118 -4 173 -2 255 12 211 35 458 134 618
250 42 30 141 114 221 186 162 146 268 231 320 253 58 25 128 20 198 -15z"/>
</g>
</svg>
