<?xml version="1.0" standalone="no"?>
  <svg xmlns="http://www.w3.org/2000/svg" viewBox="0 75 1440 200">
    <path fill="#7cb342" fill-opacity="0" stroke="#7cb342" stroke-width="0.5%" d="M0,96L30,117.3C60,139,120,181,180,208C240,235,300,245,360,229.3C420,213,480,171,540,144C600,117,660,107,720,133.3C780,160,840,224,900,218.7C960,213,1020,139,1080,133.3C1140,128,1200,192,1260,186.7C1320,181,1380,107,1410,69.3L1440,32L1440,0L1410,0C1380,0,1320,0,1260,0C1200,0,1140,0,1080,0C1020,0,960,0,900,0C840,0,780,0,720,0C660,0,600,0,540,0C480,0,420,0,360,0C300,0,240,0,180,0C120,0,60,0,30,0L0,0Z"></path>
    <path fill="#29b6f6" fill-opacity="1" d="M0,128L30,149.3C60,171,120,213,180,197.3C240,181,300,107,360,96C420,85,480,139,540,170.7C600,203,660,213,720,197.3C780,181,840,139,900,112C960,85,1020,75,1080,80C1140,85,1200,107,1260,112C1320,117,1380,107,1410,101.3L1440,96L1440,0L1410,0C1380,0,1320,0,1260,0C1200,0,1140,0,1080,0C1020,0,960,0,900,0C840,0,780,0,720,0C660,0,600,0,540,0C480,0,420,0,360,0C300,0,240,0,180,0C120,0,60,0,30,0L0,0Z"></path>
  </svg>
